<?xml version="1.0" encoding="UTF-8"?>
<svg xmlns="http://www.w3.org/2000/svg" xmlns:xlink="http://www.w3.org/1999/xlink" width="65px" height="65px" viewBox="0 0 65 65" version="1.1">
<g id="surface1">
<path style=" stroke:none;fill-rule:nonzero;fill:rgb(49.411765%,33.72549%,76.470588%);fill-opacity:1;" d="M 29.035156 5.664062 C 27.195312 5.992188 25.265625 6.816406 23.613281 7.972656 C 22.292969 8.886719 20.234375 11.058594 19.183594 12.617188 C 17.023438 15.855469 15.578125 19.945312 15.121094 24.148438 C 14.941406 25.695312 14.941406 29.035156 15.109375 30.53125 C 15.617188 35.089844 17.289062 39.570312 19.703125 42.820312 C 20.351562 43.695312 20.375 43.761719 20.375 44.5625 C 20.390625 45.816406 20.730469 46.640625 21.570312 47.492188 C 23.179688 49.09375 25.570312 49.09375 27.179688 47.492188 C 28.3125 46.351562 28.652344 44.851562 28.121094 43.289062 C 27.804688 42.328125 26.734375 41.257812 25.773438 40.941406 C 25.035156 40.6875 24.046875 40.625 23.460938 40.789062 C 23.144531 40.878906 23.066406 40.816406 22.496094 39.953125 C 18.699219 34.339844 17.851562 25.683594 20.402344 18.851562 C 21.351562 16.289062 22.558594 14.371094 24.296875 12.617188 C 27.382812 9.535156 30.761719 8.683594 34.390625 10.105469 C 37.65625 11.386719 40.484375 14.828125 42.085938 19.476562 L 42.605469 20.972656 L 43.734375 21.378906 C 44.371094 21.609375 45.347656 22 45.929688 22.242188 L 46.984375 22.699219 L 46.898438 22.242188 C 46.730469 21.226562 46.160156 19.054688 45.804688 18.027344 C 45.234375 16.390625 43.773438 13.53125 42.820312 12.1875 C 39.253906 7.199219 34.085938 4.75 29.035156 5.664062 Z M 29.035156 5.664062 "/>
<path style=" stroke:none;fill-rule:nonzero;fill:rgb(49.411765%,33.72549%,76.470588%);fill-opacity:1;" d="M 27.484375 21.824219 C 23.945312 22.761719 23.347656 27.5 26.558594 29.273438 C 27.167969 29.605469 27.34375 29.644531 28.4375 29.644531 C 29.441406 29.644531 29.734375 29.59375 30.175781 29.351562 C 30.953125 28.945312 31.535156 28.398438 31.867188 27.75 C 32.207031 27.105469 32.410156 27.039062 34.085938 27.039062 C 38.921875 27.039062 44.496094 29.171875 49.003906 32.753906 C 50.375 33.84375 52.417969 35.941406 53.398438 37.273438 C 54.867188 39.253906 55.796875 41.054688 56.445312 43.242188 C 56.886719 44.75 57.015625 47.238281 56.695312 48.648438 C 55.390625 54.5 48.699219 57 40.613281 54.664062 L 39.621094 54.375 L 39.328125 54.679688 C 39.164062 54.855469 38.414062 55.476562 37.640625 56.074219 C 36.878906 56.671875 36.234375 57.191406 36.207031 57.242188 C 36.195312 57.292969 36.5625 57.472656 37.03125 57.664062 C 45.320312 60.859375 53.179688 59.898438 57.609375 55.148438 C 59.171875 53.484375 60.113281 51.644531 60.582031 49.410156 C 60.796875 48.382812 60.824219 47.847656 60.773438 46.148438 C 60.722656 44.40625 60.65625 43.898438 60.328125 42.65625 C 59.335938 38.9375 57.292969 35.40625 54.335938 32.320312 C 51.644531 29.53125 49.03125 27.613281 45.640625 25.949219 C 41.414062 23.890625 37.527344 23.003906 33.363281 23.132812 L 31.496094 23.195312 L 31.089844 22.773438 C 30.328125 21.988281 28.589844 21.53125 27.484375 21.824219 Z M 27.484375 21.824219 "/>
<path style=" stroke:none;fill-rule:nonzero;fill:rgb(49.411765%,33.72549%,76.470588%);fill-opacity:1;" d="M 10.652344 32.335938 C 7.679688 35.421875 5.625 38.988281 4.621094 42.847656 C 4.140625 44.664062 4.050781 47.644531 4.417969 49.410156 C 4.886719 51.65625 5.851562 53.523438 7.390625 55.160156 C 12.289062 60.367188 21.316406 60.976562 30.152344 56.683594 C 35.773438 53.953125 40.523438 49.460938 43.1875 44.304688 C 43.695312 43.316406 43.773438 43.226562 44.21875 43.140625 C 45.359375 42.898438 46.425781 42.046875 46.972656 40.941406 C 47.40625 40.054688 47.417969 38.570312 46.984375 37.601562 C 46.605469 36.765625 45.589844 35.8125 44.738281 35.507812 C 42.695312 34.785156 40.34375 35.828125 39.609375 37.792969 C 39.214844 38.820312 39.292969 40.195312 39.773438 41.070312 L 40.117188 41.679688 L 39.722656 42.453125 C 36.929688 47.988281 30.734375 52.875 24.121094 54.765625 C 20.527344 55.78125 16.859375 55.796875 13.925781 54.78125 C 11.058594 53.789062 8.9375 51.480469 8.304688 48.671875 C 8 47.25 8.101562 44.777344 8.554688 43.226562 C 9.164062 41.15625 10.804688 38.136719 12.226562 36.5 L 12.644531 36.015625 L 12.351562 34.8125 C 12.199219 34.148438 11.996094 33.148438 11.921875 32.578125 C 11.832031 32.003906 11.730469 31.507812 11.679688 31.445312 C 11.640625 31.394531 11.171875 31.800781 10.652344 32.335938 Z M 10.652344 32.335938 "/>
</g>
</svg>
